<svg width="63" height="67" viewBox="0 0 63 67" fill="none" xmlns="http://www.w3.org/2000/svg">
    <circle cx="31.5" cy="33.5" r="31.5" fill="none" stroke="white" stroke-width="1"/>
    <svg x="20" y="20" width="23" height="27" viewBox="0 0 23 27" fill="none" xmlns="http://www.w3.org/2000/svg">
        <path d="M22.1249 15.9706C22.0003 16.0992 21.5299 16.649 21.0916 17.1013C18.5222 19.9458 11.8195 24.6016 8.31129 26.0227C7.77851 26.251 6.43151 26.7343 5.71183 26.7654C5.02222 26.7654 4.36484 26.6058 3.73753 26.2821C2.95554 25.8298 2.32824 25.1181 1.98451 24.2779C1.76323 23.6948 1.4195 21.95 1.4195 21.9189C1.07577 20.0101 0.886719 16.9084 0.886719 13.4809C0.886719 10.2152 1.07577 7.23995 1.3572 5.30226C1.38942 5.27122 1.73315 3.10296 2.10911 2.36025C2.79872 1.00343 4.14571 0.160954 5.58723 0.160954H5.71183C6.65064 0.19421 8.62494 1.03668 8.62494 1.06772C11.9441 2.49106 18.4921 6.91848 21.1238 9.86049C21.1238 9.86049 21.865 10.6165 22.1872 11.0887C22.6899 11.7671 22.9392 12.6074 22.9392 13.4476C22.9392 14.3855 22.6577 15.259 22.1249 15.9706Z" fill="white"/>
    </svg>
</svg>
