<svg width="20" height="20" viewBox="0 0 20 20" fill="none" xmlns="http://www.w3.org/2000/svg">
<path d="M13.1664 15.5866C13.3425 15.7627 13.4414 16.0016 13.4414 16.2507C13.4414 16.4997 13.3425 16.7386 13.1664 16.9147C12.9902 17.0908 12.7514 17.1898 12.5023 17.1898C12.2532 17.1898 12.0144 17.0908 11.8382 16.9147L5.58824 10.6647C5.50084 10.5776 5.43149 10.4741 5.38417 10.3602C5.33686 10.2462 5.3125 10.124 5.3125 10.0006C5.3125 9.87726 5.33686 9.75509 5.38417 9.64113C5.43149 9.52718 5.50084 9.42368 5.58824 9.33659L11.8382 3.08659C12.0144 2.91047 12.2532 2.81152 12.5023 2.81152C12.7514 2.81152 12.9902 2.91047 13.1664 3.08659C13.3425 3.26271 13.4414 3.50158 13.4414 3.75065C13.4414 3.99972 13.3425 4.23859 13.1664 4.41471L7.58121 9.99987L13.1664 15.5866Z" fill="#475569"/>
</svg>
